<svg id="visual" viewBox="0 0 900 600" width="900" height="600" xmlns="http://www.w3.org/2000/svg" xmlns:xlink="http://www.w3.org/1999/xlink" version="1.1"><g stroke-width="1" stroke-linejoin="bevel"><path d="M431 322L462 392L500 339Z" fill="#0c2435" stroke="#0c2435"></path><path d="M431 322L364 423L462 392Z" fill="#15384f" stroke="#15384f"></path><path d="M528 533L569 434L462 392Z" fill="#246688" stroke="#246688"></path><path d="M462 392L569 434L500 339Z" fill="#297ea6" stroke="#297ea6"></path><path d="M569 434L625 332L500 339Z" fill="#00101c" stroke="#00101c"></path><path d="M496 165L362 199L431 322Z" fill="#081a28" stroke="#081a28"></path><path d="M496 165L431 322L500 339Z" fill="#15384f" stroke="#15384f"></path><path d="M431 322L279 310L364 423Z" fill="#112e42" stroke="#112e42"></path><path d="M364 423L424 530L462 392Z" fill="#0c2435" stroke="#0c2435"></path><path d="M362 199L279 310L431 322Z" fill="#00101c" stroke="#00101c"></path><path d="M364 423L306 497L424 530Z" fill="#00101c" stroke="#00101c"></path><path d="M629 212L496 165L500 339Z" fill="#081a28" stroke="#081a28"></path><path d="M528 533L585 494L569 434Z" fill="#112e42" stroke="#112e42"></path><path d="M717 467L731 370L625 332Z" fill="#19435d" stroke="#19435d"></path><path d="M424 530L528 533L462 392Z" fill="#00101c" stroke="#00101c"></path><path d="M279 310L268 389L364 423Z" fill="#277297" stroke="#277297"></path><path d="M268 389L306 497L364 423Z" fill="#112e42" stroke="#112e42"></path><path d="M625 332L629 212L500 339Z" fill="#0c2435" stroke="#0c2435"></path><path d="M625 332L669 282L629 212Z" fill="#297ea6" stroke="#297ea6"></path><path d="M731 370L669 282L625 332Z" fill="#00101c" stroke="#00101c"></path><path d="M362 199L266 232L279 310Z" fill="#00101c" stroke="#00101c"></path><path d="M279 310L186 361L268 389Z" fill="#205a7a" stroke="#205a7a"></path><path d="M488 110L438 118L496 165Z" fill="#277297" stroke="#277297"></path><path d="M496 165L438 118L362 199Z" fill="#19435d" stroke="#19435d"></path><path d="M318 82L227 211L266 232Z" fill="#00101c" stroke="#00101c"></path><path d="M266 232L231 289L279 310Z" fill="#277297" stroke="#277297"></path><path d="M268 389L192 529L306 497Z" fill="#00101c" stroke="#00101c"></path><path d="M575 106L488 110L496 165Z" fill="#246688" stroke="#246688"></path><path d="M306 497L416 600L424 530Z" fill="#112e42" stroke="#112e42"></path><path d="M424 530L416 600L528 533Z" fill="#246688" stroke="#246688"></path><path d="M416 600L534 600L528 533Z" fill="#00101c" stroke="#00101c"></path><path d="M528 533L570 600L585 494Z" fill="#1d4e6b" stroke="#1d4e6b"></path><path d="M629 212L575 106L496 165Z" fill="#19435d" stroke="#19435d"></path><path d="M690 161L575 106L629 212Z" fill="#246688" stroke="#246688"></path><path d="M717 467L569 434L585 494Z" fill="#1d4e6b" stroke="#1d4e6b"></path><path d="M717 467L625 332L569 434Z" fill="#205a7a" stroke="#205a7a"></path><path d="M669 282L690 161L629 212Z" fill="#00101c" stroke="#00101c"></path><path d="M318 82L266 232L362 199Z" fill="#297ea6" stroke="#297ea6"></path><path d="M266 232L227 211L231 289Z" fill="#0c2435" stroke="#0c2435"></path><path d="M534 600L570 600L528 533Z" fill="#15384f" stroke="#15384f"></path><path d="M78 310L186 361L231 289Z" fill="#297ea6" stroke="#297ea6"></path><path d="M231 289L186 361L279 310Z" fill="#19435d" stroke="#19435d"></path><path d="M713 600L717 467L585 494Z" fill="#0c2435" stroke="#0c2435"></path><path d="M801 192L690 161L669 282Z" fill="#00101c" stroke="#00101c"></path><path d="M397 0L318 82L438 118Z" fill="#277297" stroke="#277297"></path><path d="M438 118L318 82L362 199Z" fill="#297ea6" stroke="#297ea6"></path><path d="M494 0L438 118L488 110Z" fill="#00101c" stroke="#00101c"></path><path d="M306 497L273 600L416 600Z" fill="#00101c" stroke="#00101c"></path><path d="M192 529L273 600L306 497Z" fill="#205a7a" stroke="#205a7a"></path><path d="M186 361L192 529L268 389Z" fill="#205a7a" stroke="#205a7a"></path><path d="M192 529L226 600L273 600Z" fill="#00101c" stroke="#00101c"></path><path d="M717 467L804 422L731 370Z" fill="#246688" stroke="#246688"></path><path d="M801 192L727 113L690 161Z" fill="#00101c" stroke="#00101c"></path><path d="M809 487L804 422L717 467Z" fill="#1d4e6b" stroke="#1d4e6b"></path><path d="M607 0L494 0L575 106Z" fill="#00101c" stroke="#00101c"></path><path d="M575 106L494 0L488 110Z" fill="#1d4e6b" stroke="#1d4e6b"></path><path d="M570 600L713 600L585 494Z" fill="#19435d" stroke="#19435d"></path><path d="M494 0L397 0L438 118Z" fill="#1d4e6b" stroke="#1d4e6b"></path><path d="M819 285L669 282L731 370Z" fill="#112e42" stroke="#112e42"></path><path d="M690 161L727 113L575 106Z" fill="#0c2435" stroke="#0c2435"></path><path d="M804 422L819 285L731 370Z" fill="#112e42" stroke="#112e42"></path><path d="M186 361L122 495L192 529Z" fill="#0c2435" stroke="#0c2435"></path><path d="M192 529L65 600L226 600Z" fill="#0c2435" stroke="#0c2435"></path><path d="M89 424L122 495L186 361Z" fill="#1d4e6b" stroke="#1d4e6b"></path><path d="M774 600L809 487L717 467Z" fill="#205a7a" stroke="#205a7a"></path><path d="M804 422L900 380L819 285Z" fill="#00101c" stroke="#00101c"></path><path d="M819 285L801 192L669 282Z" fill="#1d4e6b" stroke="#1d4e6b"></path><path d="M397 0L325 0L318 82Z" fill="#205a7a" stroke="#205a7a"></path><path d="M318 82L188 82L227 211Z" fill="#081a28" stroke="#081a28"></path><path d="M78 310L89 424L186 361Z" fill="#15384f" stroke="#15384f"></path><path d="M116 183L231 289L227 211Z" fill="#19435d" stroke="#19435d"></path><path d="M727 113L607 0L575 106Z" fill="#19435d" stroke="#19435d"></path><path d="M219 0L188 82L318 82Z" fill="#297ea6" stroke="#297ea6"></path><path d="M188 82L116 183L227 211Z" fill="#205a7a" stroke="#205a7a"></path><path d="M116 183L78 310L231 289Z" fill="#205a7a" stroke="#205a7a"></path><path d="M713 600L774 600L717 467Z" fill="#297ea6" stroke="#297ea6"></path><path d="M801 192L773 74L727 113Z" fill="#15384f" stroke="#15384f"></path><path d="M727 113L731 0L607 0Z" fill="#19435d" stroke="#19435d"></path><path d="M188 82L99 132L116 183Z" fill="#112e42" stroke="#112e42"></path><path d="M116 183L0 298L78 310Z" fill="#19435d" stroke="#19435d"></path><path d="M127 0L99 132L188 82Z" fill="#1d4e6b" stroke="#1d4e6b"></path><path d="M325 0L219 0L318 82Z" fill="#19435d" stroke="#19435d"></path><path d="M809 487L900 380L804 422Z" fill="#205a7a" stroke="#205a7a"></path><path d="M819 285L900 268L801 192Z" fill="#205a7a" stroke="#205a7a"></path><path d="M801 192L900 103L773 74Z" fill="#081a28" stroke="#081a28"></path><path d="M900 537L900 380L809 487Z" fill="#081a28" stroke="#081a28"></path><path d="M773 74L731 0L727 113Z" fill="#277297" stroke="#277297"></path><path d="M900 380L900 268L819 285Z" fill="#112e42" stroke="#112e42"></path><path d="M773 74L791 0L731 0Z" fill="#15384f" stroke="#15384f"></path><path d="M78 310L0 371L89 424Z" fill="#246688" stroke="#246688"></path><path d="M0 479L65 600L122 495Z" fill="#246688" stroke="#246688"></path><path d="M0 298L0 371L78 310Z" fill="#277297" stroke="#277297"></path><path d="M0 160L0 298L116 183Z" fill="#112e42" stroke="#112e42"></path><path d="M0 479L122 495L89 424Z" fill="#0c2435" stroke="#0c2435"></path><path d="M122 495L65 600L192 529Z" fill="#15384f" stroke="#15384f"></path><path d="M900 268L900 169L801 192Z" fill="#277297" stroke="#277297"></path><path d="M774 600L900 537L809 487Z" fill="#205a7a" stroke="#205a7a"></path><path d="M0 371L0 479L89 424Z" fill="#15384f" stroke="#15384f"></path><path d="M900 103L791 0L773 74Z" fill="#205a7a" stroke="#205a7a"></path><path d="M219 0L127 0L188 82Z" fill="#246688" stroke="#246688"></path><path d="M99 132L0 160L116 183Z" fill="#15384f" stroke="#15384f"></path><path d="M0 66L0 160L99 132Z" fill="#081a28" stroke="#081a28"></path><path d="M900 169L900 103L801 192Z" fill="#15384f" stroke="#15384f"></path><path d="M774 600L900 600L900 537Z" fill="#205a7a" stroke="#205a7a"></path><path d="M0 479L0 600L65 600Z" fill="#246688" stroke="#246688"></path><path d="M127 0L0 66L99 132Z" fill="#205a7a" stroke="#205a7a"></path><path d="M900 103L900 0L791 0Z" fill="#1d4e6b" stroke="#1d4e6b"></path><path d="M127 0L0 0L0 66Z" fill="#15384f" stroke="#15384f"></path></g></svg>